<?xml version="1.0" encoding="UTF-8" standalone="no"?>
<!-- Generator: Adobe Illustrator 18.1.1, SVG Export Plug-In . SVG Version: 6.00 Build 0)  -->

<svg
   xmlns:dc="http://purl.org/dc/elements/1.1/"
   xmlns:cc="http://creativecommons.org/ns#"
   xmlns:rdf="http://www.w3.org/1999/02/22-rdf-syntax-ns#"
   xmlns:svg="http://www.w3.org/2000/svg"
   xmlns="http://www.w3.org/2000/svg"
   xmlns:sodipodi="http://sodipodi.sourceforge.net/DTD/sodipodi-0.dtd"
   xmlns:inkscape="http://www.inkscape.org/namespaces/inkscape"
   version="1.1"
   id="Capa_1"
   x="0px"
   y="0px"
   viewBox="0 0 259.526 259.526"
   style="enable-background:new 0 0 259.526 259.526;"
   xml:space="preserve"
   inkscape:version="0.48.4 r9939"
   width="100%"
   height="100%"
   sodipodi:docname="sbl_share.svg"
   inkscape:export-filename="/home/lunovox/Desenvolvimento/Localhost/apps/libretube/imgs/icons/sbl_share.png"
   inkscape:export-xdpi="5.5485768"
   inkscape:export-ydpi="5.5485768"><metadata
     id="metadata40"><rdf:RDF><cc:Work
         rdf:about=""><dc:format>image/svg+xml</dc:format><dc:type
           rdf:resource="http://purl.org/dc/dcmitype/StillImage" /><dc:title></dc:title></cc:Work></rdf:RDF></metadata><defs
     id="defs38"><filter
       id="filter3022"
       inkscape:label="Glowing bubble"
       inkscape:menu="Ridges"
       inkscape:menu-tooltip="Bubble effect with refraction and glow"
       x="-0.25"
       y="-0.25"
       width="1.5"
       height="1.5"
       color-interpolation-filters="sRGB"><feGaussianBlur
         id="feGaussianBlur3024"
         stdDeviation="1"
         result="result1" /><feGaussianBlur
         id="feGaussianBlur3026"
         stdDeviation="10"
         result="result6"
         in="result1" /><feComposite
         id="feComposite3028"
         in2="result1"
         operator="atop"
         in="result6"
         result="result8" /><feComposite
         id="feComposite3030"
         in2="result8"
         operator="xor"
         result="fbSourceGraphic"
         in="result6" /><feColorMatrix
         id="feColorMatrix3032"
         result="fbSourceGraphicAlpha"
         in="fbSourceGraphic"
         values="0 0 0 -1 0 0 0 0 -1 0 0 0 0 -1 0 0 0 0 2 0 " /><feGaussianBlur
         id="feGaussianBlur3034"
         result="result0"
         in="fbSourceGraphicAlpha"
         stdDeviation="1" /><feSpecularLighting
         id="feSpecularLighting3036"
         specularExponent="35"
         specularConstant="1.5"
         surfaceScale="-2"
         lighting-color="rgb(255,255,255)"
         result="result1"
         in="result0"><feDistantLight
           id="feDistantLight3038"
           azimuth="230"
           elevation="60" /></feSpecularLighting><feComposite
         id="feComposite3040"
         in2="fbSourceGraphicAlpha"
         operator="in"
         result="result2"
         in="result1" /><feComposite
         id="feComposite3042"
         in2="result2"
         k3="1"
         k2="1"
         operator="arithmetic"
         result="result4"
         in="fbSourceGraphic" /><feComposite
         id="feComposite3044"
         in2="result4"
         operator="atop"
         in="result9"
         result="result91" /><feBlend
         id="feBlend3046"
         in2="result91"
         mode="multiply" /></filter></defs><sodipodi:namedview
     pagecolor="#ffffff"
     bordercolor="#666666"
     borderopacity="1"
     objecttolerance="10"
     gridtolerance="10"
     guidetolerance="10"
     inkscape:pageopacity="0"
     inkscape:pageshadow="2"
     inkscape:window-width="1360"
     inkscape:window-height="691"
     id="namedview36"
     showgrid="false"
     inkscape:zoom="1.2860153"
     inkscape:cx="125.94366"
     inkscape:cy="168.51748"
     inkscape:window-x="0"
     inkscape:window-y="25"
     inkscape:window-maximized="1"
     inkscape:current-layer="Capa_1" /><g
     id="g6" /><g
     id="g8" /><g
     id="g10" /><g
     id="g12" /><g
     id="g14" /><g
     id="g16" /><g
     id="g18" /><g
     id="g20" /><g
     id="g22" /><g
     id="g24" /><g
     id="g26" /><g
     id="g28" /><g
     id="g30" /><g
     id="g32" /><g
     id="g34" /><g
     id="g3048"
     transform="matrix(0.83820438,0,0,0.83820438,18.112536,20.606287)"><g
       id="Share"><path
         id="path4"
         d="m 201.357,161.085 c -11.49,0 -22.035,3.97 -30.411,10.57 l -63.771,-37.643 c 0.12,-1.403 0.215,-2.814 0.215,-4.248 0,-1.434 -0.094,-2.845 -0.215,-4.248 l 63.771,-37.644 c 8.376,6.6 18.921,10.569 30.411,10.569 27.18,0 49.22,-22.036 49.22,-49.221 0,-27.184 -22.04,-49.22 -49.22,-49.22 -27.179,0 -49.22,22.036 -49.22,49.22 0,2.122 0.179,4.198 0.44,6.249 L 88.01,90.685 C 79.726,84.349 69.404,80.543 58.171,80.543 c -27.18,0 -49.222,22.036 -49.222,49.221 0,27.184 22.042,49.22 49.222,49.22 11.232,0 21.555,-3.806 29.839,-10.142 l 64.568,35.216 c -0.261,2.051 -0.44,4.126 -0.44,6.248 0,27.184 22.041,49.22 49.22,49.22 27.18,0 49.22,-22.037 49.22,-49.22 0,-27.183 -22.041,-49.221 -49.221,-49.221 z"
         style="fill-rule:evenodd"
         inkscape:connector-curvature="0" /></g><g
       style="fill:#00ff00;filter:url(#filter3022)"
       id="g3017"><path
         style="fill:#00ff00;fill-rule:evenodd"
         d="m 201.357,161.085 c -11.49,0 -22.035,3.97 -30.411,10.57 l -63.771,-37.643 c 0.12,-1.403 0.215,-2.814 0.215,-4.248 0,-1.434 -0.094,-2.845 -0.215,-4.248 l 63.771,-37.644 c 8.376,6.6 18.921,10.569 30.411,10.569 27.18,0 49.22,-22.036 49.22,-49.221 0,-27.184 -22.04,-49.22 -49.22,-49.22 -27.179,0 -49.22,22.036 -49.22,49.22 0,2.122 0.179,4.198 0.44,6.249 L 88.01,90.685 C 79.726,84.349 69.404,80.543 58.171,80.543 c -27.18,0 -49.222,22.036 -49.222,49.221 0,27.184 22.042,49.22 49.222,49.22 11.232,0 21.555,-3.806 29.839,-10.142 l 64.568,35.216 c -0.261,2.051 -0.44,4.126 -0.44,6.248 0,27.184 22.041,49.22 49.22,49.22 27.18,0 49.22,-22.037 49.22,-49.22 0,-27.183 -22.041,-49.221 -49.221,-49.221 z"
         id="path3019"
         inkscape:connector-curvature="0" /></g></g></svg>